<svg width="12.999999999999998" height="14" xmlns="http://www.w3.org/2000/svg">
 <title>ArtStation icon</title>

 <g>
  <title>background</title>
  <rect x="-1" y="-1" width="15" height="16" id="canvas_background" fill="none"/>
 </g>
 <g>
  <title>Layer 1</title>
  <path fill="#f2f2f3" d="m0.0317,11.16652l1.09345,2.06007l0.00054,0a1.30761,1.42471 0 0 0 1.16735,0.78347l7.25927,0l-1.50613,-2.84354l-8.01448,0zm12.9466,0.01469c0,-0.28447 -0.07714,-0.54955 -0.2093,-0.7723l-4.25296,-8.05572a1.30761,1.42471 0 0 0 -1.15548,-0.75761l-2.24786,0l6.56986,12.40213l1.03573,-1.95427c0.20391,-0.3744 0.26001,-0.54014 0.26001,-0.86223zm-6.00345,-2.03479l-2.93618,-5.54132l-2.93672,5.54132l5.8729,0z" id="svg_1" stroke="null"/>
 </g>
</svg>