<svg width="19" height="19" xmlns="http://www.w3.org/2000/svg" class="svg-inline--fa fa-arrow-circle-down fa-w-16">

 <g>
  <title>background</title>
  <rect fill="none" id="canvas_background" height="21" width="21" y="-1" x="-1"/>
 </g>
 <g>
  <title>Layer 1</title>
  <path stroke="null" id="svg_1" d="m18.940651,9.448845c0,5.208473 -4.220003,9.428476 -9.428476,9.428476s-9.428476,-4.220003 -9.428476,-9.428476s4.220003,-9.428476 9.428476,-9.428476s9.428476,4.220003 9.428476,9.428476zm-5.459392,-1.098722l-2.752507,2.870363l0,-6.942096c0,-0.50564 -0.406793,-0.912433 -0.912433,-0.912433l-0.608289,0c-0.50564,0 -0.912433,0.406793 -0.912433,0.912433l0,6.942096l-2.752507,-2.870363c-0.353568,-0.368775 -0.942848,-0.376379 -1.304019,-0.015207l-0.414397,0.418199c-0.35737,0.35737 -0.35737,0.935244 0,1.288812l5.041193,5.044995c0.35737,0.35737 0.935244,0.35737 1.288812,0l5.044995,-5.044995c0.35737,-0.35737 0.35737,-0.935244 0,-1.288812l-0.414397,-0.418199c-0.361171,-0.361171 -0.950451,-0.353568 -1.304019,0.015207z" fill="#f2f2f3"/>
 </g>
</svg>