<svg width="14" height="14" xmlns="http://www.w3.org/2000/svg">

 <g>
  <title>background</title>
  <rect fill="none" id="canvas_background" height="402" width="582" y="-1" x="-1"/>
 </g>
 <g>
  <title>Layer 1</title>
  <g id="svg_1">
   <g id="svg_2">
    <path id="svg_3" fill="#404040" d="m7,9l-1.732,-1.516l-4.952,4.245c0.18,0.167 0.423,0.271 0.691,0.271l11.986,0c0.267,0 0.509,-0.104 0.688,-0.271l-4.949,-4.245l-1.732,1.516z"/>
    <path id="svg_4" fill="#404040" d="m13.684,2.271c-0.18,-0.168 -0.422,-0.271 -0.691,-0.271l-11.986,0c-0.267,0 -0.509,0.104 -0.689,0.273l6.682,5.727l6.684,-5.729z"/>
    <polygon id="svg_5" fill="#404040" points="0,2.878 0,11.186 4.833,7.079   "/>
    <polygon id="svg_6" fill="#404040" points="9.167,7.079 14,11.186 14,2.875   "/>
   </g>
   <line stroke="#404040" transform="rotate(2.4000093936920166 2.5884909629822355,9.419543266296385) " stroke-linecap="null" stroke-linejoin="null" id="svg_23" y2="11.632334" x2="0.196821" y1="7.206753" x1="4.980161" stroke-width="0.7" fill="#030104"/>
   <line stroke="#404040" transform="rotate(-96.95221710205078 11.40458679199219,9.391827583312988) " stroke-linecap="null" stroke-linejoin="null" id="svg_24" y2="11.590437" x2="9.019279" y1="7.193219" x1="13.789894" stroke-width="0.7" fill="#030104"/>
  </g>
  <g id="svg_7"/>
  <g id="svg_8"/>
  <g id="svg_9"/>
  <g id="svg_10"/>
  <g id="svg_11"/>
  <g id="svg_12"/>
  <g id="svg_13"/>
  <g id="svg_14"/>
  <g id="svg_15"/>
  <g id="svg_16"/>
  <g id="svg_17"/>
  <g id="svg_18"/>
  <g id="svg_19"/>
  <g id="svg_20"/>
  <g id="svg_21"/>
 </g>
</svg>